<svg width="21" height="17" viewBox="0 0 21 17" fill="none" xmlns="http://www.w3.org/2000/svg">
<path d="M1.33391 7.50869H17.6647L11.5771 1.42113C11.2575 1.10146 11.2575 0.573315 11.5771 0.23975C11.8968 -0.0799166 12.4249 -0.0799166 12.7585 0.23975L20.2637 7.74496C20.2637 7.74496 20.2637 7.74497 20.2776 7.75886C20.2915 7.77276 20.3054 7.78666 20.3193 7.81446L20.3332 7.82836C20.3471 7.84226 20.361 7.85615 20.3749 7.87005C20.3749 7.87005 20.3749 7.88395 20.3888 7.88395C20.4027 7.89785 20.4166 7.92565 20.4166 7.93954V7.95344C20.4305 7.96734 20.4444 7.99514 20.4444 8.02294C20.4583 8.05073 20.4583 8.06463 20.4722 8.09243C20.4722 8.09243 20.4722 8.09243 20.4722 8.10633C20.4722 8.13412 20.4861 8.14802 20.4861 8.17582V8.18972C20.4861 8.20362 20.5 8.23141 20.5 8.24531C20.5 8.27311 20.5 8.30091 20.5 8.3287C20.5 8.3565 20.5 8.3843 20.5 8.4121C20.5 8.43989 20.5 8.45379 20.4861 8.46769V8.48159C20.4861 8.50939 20.4722 8.52328 20.4722 8.55108C20.4722 8.55108 20.4722 8.55108 20.4722 8.56498C20.4583 8.59278 20.4583 8.60668 20.4444 8.63447C20.4444 8.63447 20.4444 8.63447 20.4444 8.64837C20.4305 8.67617 20.4305 8.69007 20.4166 8.71786V8.73176C20.4027 8.74566 20.3888 8.77346 20.3888 8.78736C20.3888 8.78736 20.3888 8.80126 20.3749 8.80126C20.361 8.81515 20.3471 8.82905 20.3471 8.84295L20.3332 8.85685C20.3193 8.87075 20.3054 8.88465 20.2915 8.89855L20.2776 8.91244L12.7724 16.4177C12.6056 16.5844 12.3972 16.6678 12.1887 16.6678C11.9802 16.6678 11.7578 16.5844 11.6049 16.4177C11.2853 16.098 11.2853 15.5698 11.6049 15.2363L17.6647 9.17652H1.33391C0.875261 9.17652 0.5 8.80125 0.5 8.3426C0.5 7.88395 0.875261 7.50869 1.33391 7.50869Z" fill="#3A4A4F"/>
</svg>
